# AST/ASF file generated using VICON BodyLanguage
# -----------------------------------------------
:version 1.10
:name VICON
:units
  mass 1.0
  length 0.45
  angle deg
:documentation
   .ast/.asf automatically generated from VICON data using
   VICON BodyBuilder and BodyLanguage model FoxedUp or BRILLIANT.MOD
:root
   order TX TY TZ RX RY RZ
   axis XYZ
   position 0 0 0  
   orientation 0 0 0 
:bonedata
  begin
     id 1 
     name lhipjoint
     direction 0.521689 -0.742065 0.420928 
     length 2.47002 
     axis 0 0 0  XYZ
  end
  begin
     id 2 
     name lfemur
     direction 0.34202 -0.939693 0  
     length 7.24654  
     axis 0 0 20  XYZ
    dof rx ry rz
    limits (-160.0 20.0)
           (-70.0 70.0)
           (-60.0 70.0)
  end
  begin
     id 3 
     name ltibia
     direction 0.34202 -0.939693 0   
     length 8.04849   
     axis 0 0 20   XYZ
    dof rx
    limits (-10.0 170.0)
  end
  begin
     id 4 
     name lfoot
     direction 0.0745411 -0.2048 0.975961   
     length 1.72367   
     axis -90 7.62852e-016 20   XYZ
    dof rx rz
    limits (-45.0 90.0)
           (-70.0 20.0)
  end
  begin
     id 5 
     name ltoes
     direction 1.53556e-011 -4.21901e-011 1   
     length 0.87311   
     axis -90 7.62852e-016 20   XYZ
    dof rx
    limits (-90.0 20.0)
  end
  begin
     id 6 
     name rhipjoint
     direction -0.52849 -0.738415 0.418857   
     length 2.48223  
     axis 0 0 0  XYZ 
  end
  begin
     id 7 
     name rfemur
     direction -0.34202 -0.939693 0   
     length 7.15571   
     axis 0 0 -20   XYZ
    dof rx ry rz
    limits (-160.0 20.0)
           (-70.0 70.0)
           (-70.0 60.0)
  end
  begin
     id 8 
     name rtibia
     direction -0.34202 -0.939693 0   
     length 7.81659   
     axis 0 0 -20   XYZ
    dof rx
    limits (-10.0 170.0)
 end
 begin
     id 9 
     name rfoot
     direction -0.0917348 -0.252039 0.963359   
     length 1.84382  
     axis -90 -7.62852e-016 -20   XYZ
    dof rx rz
    limits (-45.0 90.0)
           (-20.0 70.0)
  end
  begin
     id 10 
     name rtoes
     direction -1.53551e-011 -4.21879e-011 1   
     length 0.927771   
     axis -90 -7.62852e-016 -20   XYZ
    dof rx
    limits (-90.0 20.0)
  end
  begin
     id 11 
     name lowerback
     direction 0.00583058 0.999822 0.0179296   
     length 2.1429   
     axis 0 0 0   XYZ
    dof rx ry rz
    limits (-20.0 45.0)
           (-30.0 30.0)
           (-30.0 30.0)
  end
  begin
     id 12 
     name upperback
     direction -0.0137999 0.999752 -0.0175071   
     length 2.14252   
     axis 0 0 0   XYZ
    dof rx ry rz
    limits (-20.0 45.0)
           (-30.0 30.0)
           (-30.0 30.0)
  end
  begin
     id 13 
     name thorax
     direction -0.0158036 0.99955 -0.0254909   
     length 2.1383   
     axis 0 0 0   XYZ
    dof rx ry rz
    limits (-20.0 45.0)
           (-30.0 30.0)
           (-30.0 30.0)
  end
  begin
     id 14 
     name lowerneck
     direction -0.0101179 0.999403 -0.0330262   
     length 1.65808   
     axis 0 0 0   XYZ
    dof rx ry rz
    limits (-20.0 45.0)
           (-30.0 30.0)
           (-30.0 30.0)
  end
  begin
     id 15 
     name upperneck
     direction 0.0497734 0.995978 -0.074501   
     length 1.5897   
     axis 0 0 0   XYZ
    dof rx ry rz
    limits (-20.0 45.0)
           (-30.0 30.0)
           (-30.0 30.0)
  end
  begin
     id 16
     name head
     direction 0.0189524 0.999519 -0.0245438  
     length 1.74024  
     axis 0 0 0   XYZ
    dof rx ry rz
    limits (-20.0 45.0)
           (-30.0 30.0)
           (-30.0 30.0)
  end
  begin
     id 17 
     name lclavicle
     direction 0.945604 0.324422 0.0241537  
     length 3.59089  
     axis 0 0 0   XYZ
    dof ry rz
    limits (-20.0 10.0)
           (0.0 20.0)
  end
  begin
     id 18 
     name lhumerus
     direction 1 -4.48964e-011 -2.63524e-027   
     length 5.2391   
     axis 180 -30 -90   XYZ
    dof rx ry rz
    limits (-60.0 90.0)
           (-90.0 90.0)
           (-90.0 90.0)
  end
  begin
     id 19
     name lradius
     direction 1 -4.48969e-011 3.86978e-028   
     length 3.31467   
     axis 180 -30 -90   XYZ
    dof rx
    limits (-10.0 170.0)
  end
  begin
     id 20
     name lwrist
     direction 1 -4.48963e-011 7.20928e-028   
     length 1.65734   
     axis -5.52449e-016 90 90   XYZ
    dof ry
    limits (-180.0 0.0)
 end
  begin
     id 21 
     name lhand
     direction 1 -4.48964e-011 1.44186e-027   
     length 0.9659   
     axis -9.20027e-016 90 90   XYZ
    dof rx rz
    limits (-90.0 90.0)
           (-45.0 45.0)
  end
  begin
     id 22 
     name lfingers
     direction 1 -4.48965e-011 2.88371e-027   
     length 0.778733   
     axis -1.84005e-015 90 90   XYZ
    dof rx
    limits (0.0 90.0)
  end
  begin
     id 23
     name lthumb
     direction 0.707107 -6.34931e-011 0.707107   
     length 1.11811   
     axis -90 45 2.85299e-015   XYZ
    dof rx rz
    limits (-45.0 45.0)
           (-45.0 45.0)
  end
  begin
     id 24 
     name rclavicle
     direction -0.923762 0.370785 0.0958234   
     length 3.54196  
     axis 0 0 0   XYZ 
    dof ry rz
    limits (-10.0 20.0)
           (-20.0 0.0)
  end
  begin
     id 25 
     name rhumerus
     direction -1 -4.48966e-011 1.18702e-017  
     length 5.30252   
     axis 180 30 90   XYZ
    dof rx ry rz
    limits (-90.0 60.0)
           (-90.0 90.0)
           (-90.0 90.0)
  end
  begin
     id 26 
     name rradius
     direction -1 -4.48966e-011 4.46736e-027   
     length 3.67875   
     axis 180 30 90   XYZ
    dof rx
    limits (-10.0 170.0)
  end
  begin
     id 27 
     name rwrist
     direction -1 -4.48966e-011 7.20928e-028   
     length 1.83937   
     axis -5.52449e-016 -90 -90   XYZ
    dof ry
    limits (-180.0 0.0)
  end
  begin
     id 28
     name rhand
     direction -1 -4.48973e-011 1.44186e-027   
     length 0.594811   
     axis -9.20027e-016 -90 -90   XYZ
    dof rx rz
    limits (-90.0 90.0)
           (-45.0 45.0)
  end
  begin
     id 29
     name rfingers
     direction -1 -4.48963e-011 2.88371e-027   
     length 0.479552   
     axis -1.84005e-015 -90 -90   XYZ
    dof rx
    limits (0.0 90.0)
  end
  begin
     id 30
     name rthumb
     direction -0.707107 -6.34932e-011 0.707107   
     length 0.688544   
     axis -90 -45 -2.85299e-015   XYZ
    dof rx rz
    limits (-45.0 45.0)
           (-45.0 45.0)
  end
:hierarchy
  begin
    root lhipjoint rhipjoint lowerback
    lhipjoint lfemur
    lfemur ltibia
    ltibia lfoot
    lfoot ltoes
    rhipjoint rfemur
    rfemur rtibia
    rtibia rfoot
    rfoot rtoes
    lowerback upperback
    upperback thorax
    thorax lowerneck lclavicle rclavicle
    lowerneck upperneck
    upperneck head
    lclavicle lhumerus
    lhumerus lradius
    lradius lwrist
    lwrist lhand lthumb
    lhand lfingers
    rclavicle rhumerus
    rhumerus rradius
    rradius rwrist
    rwrist rhand rthumb
    rhand rfingers
  end

#!OML:ASF E:\acrobat2\Project_11_07_03\Capture day 1\Session 1\Acrobat.ASF
:FULLY-SPECIFIED
:DEGREES
372
root 10.222 20.4705 -14.6549 6.59235 0.0222275 -0.13706
lowerback -11.0418 0.420081 1.19023
upperback -6.75776 0.458905 -1.96389
thorax -0.831148 0.157888 -2.65962
lowerneck -0.619582 -0.814543 -0.627564
upperneck 8.13238 -1.28206 2.84042
head 2.71122 -0.572496 0.985082
rclavicle 3.37934e-015 1.94809e-014
rhumerus 77.3754 -38.8665 -46.9983
rradius 19.2821
rwrist 6.02879
rhand -18.224 -25.6086
rfingers 7.12502
rthumb 8.05412 -55.4352
lclavicle 3.37934e-015 1.94809e-014
lhumerus 80.6483 30.0412 41.7652
lradius 20.2898
lwrist -1.50483
lhand -15.5902 -18.8426
lfingers 7.12502
lthumb 10.5954 10.8703
rfemur 6.04511 1.44755 20.0433
rtibia 5.92295
rfoot -31.2206 -3.69323
rtoes 2.52144
lfemur -7.50601 -3.17504 -17.2054
ltibia 28.6301
lfoot -34.007 -16.5426
ltoes 6.39215
373
root 10.2224 20.4652 -14.6159 6.77866 -0.0445405 -0.140255
lowerback -10.9574 0.445712 1.22737
upperback -6.77296 0.489647 -1.98187
thorax -0.890835 0.171079 -2.69654
lowerneck -0.688649 -0.823626 -0.582603
upperneck 8.34257 -1.29483 2.75815
head 2.79352 -0.577816 0.951373
rclavicle -1.49089e-015 -1.59028e-015
rhumerus 77.4567 -38.792 -47.0469
rradius 19.2895
rwrist 6.01843
rhand -18.2637 -25.6146
rfingers 7.12502
rthumb 8.01583 -55.4426
lclavicle -1.49089e-015 -1.59028e-015
lhumerus 80.5785 30.0439 41.5592
lradius 20.3348
lwrist -1.35517
lhand -15.6077 -18.8549
lfingers 7.12502
lthumb 10.5786 10.8589
rfemur 5.99318 1.51273 20.0369
rtibia 5.88441
rfoot -31.2137 -3.65953
rtoes 2.84258
lfemur -7.56092 -3.17852 -17.2193
ltibia 28.6441
lfoot -34.0746 -16.4774
ltoes 6.40897
374
root 10.2225 20.4596 -14.5771 6.96365 -0.106359 -0.141706
lowerback -10.852 0.469336 1.26151
upperback -6.78683 0.518189 -2.00405
thorax -0.960589 0.183062 -2.73653
lowerneck -0.764474 -0.828238 -0.539801
upperneck 8.5681 -1.30254 2.68698
head 2.88266 -0.580243 0.921738
rclavicle -1.72943e-014 -1.82882e-014
rhumerus 77.5526 -38.7161 -47.1302
rradius 19.2867
rwrist 6.01745
rhand -18.3113 -25.6076
rfingers 7.12502
rthumb 7.96994 -55.4374
lclavicle -1.72943e-014 -1.82882e-014
lhumerus 80.4668 30.0319 41.2904
lradius 20.3917
lwrist -1.17019
lhand -15.5788 -18.8366
lfingers 7.12502
lthumb 10.6065 10.8757
rfemur 5.93505 1.5726 20.0322
rtibia 5.86175
rfoot -31.2033 -3.61123
rtoes 3.20528
lfemur -7.61708 -3.17062 -17.2317
ltibia 28.6554
lfoot -34.1311 -16.4368
ltoes 6.44731
375
root 10.2224 20.454 -14.5383 7.15531 -0.157778 -0.145321
lowerback -10.7422 0.492069 1.2934
upperback -6.78996 0.545976 -2.02656
thorax -1.02151 0.194916 -2.77571
lowerneck -0.865273 -0.831551 -0.516048
upperneck 8.81432 -1.31067 2.64694
head 2.98448 -0.582183 0.90549
rclavicle -6.36111e-015 8.74653e-015
rhumerus 77.752 -38.6557 -47.3604
rradius 19.2565
rwrist 6.12026
rhand -18.3401 -25.5678
rfingers 7.12502
rthumb 7.94211 -55.3986
lclavicle -6.36111e-015 8.74653e-015
lhumerus 80.3618 30.0216 41.0189
lradius 20.4491
lwrist -0.99002
lhand -15.4948 -18.8087
lfingers 7.12502
lthumb 10.6875 10.8995
rfemur 5.86666 1.62222 20.0333
rtibia 5.84666
rfoot -31.1844 -3.56572
rtoes 3.52382
lfemur -7.684 -3.15509 -17.2369
ltibia 28.663
lfoot -34.1776 -16.4256
ltoes 6.54302
376
root 10.2224 20.4488 -14.4993 7.35967 -0.194952 -0.158409
lowerback -10.6418 0.512553 1.32977
upperback -6.77727 0.570616 -2.04334
thorax -1.06097 0.205557 -2.8117
lowerneck -0.98367 -0.831634 -0.505689
upperneck 9.05184 -1.31521 2.62585
head 3.08744 -0.582121 0.897734
rclavicle 1.00386e-014 -1.63003e-014
rhumerus 78.0977 -38.6151 -47.7869
rradius 19.195
rwrist 6.36719
rhand -18.3322 -25.4882
rfingers 7.12502
rthumb 7.94967 -55.3187
lclavicle 1.00386e-014 -1.63003e-014
lhumerus 80.3105 30.0277 40.8132
lradius 20.4948
lwrist -0.85122
lhand -15.3753 -18.791
lfingers 7.12502
lthumb 10.8028 10.9112
rfemur 5.77934 1.65875 20.049
rtibia 5.84334
rfoot -31.1474 -3.53849
rtoes 3.74393
lfemur -7.76604 -3.13357 -17.2267
ltibia 28.6625
lfoot -34.2214 -16.4244
ltoes 6.632
